<?xml version="1.0" encoding="utf-8"?>
<!-- Generator: Adobe Illustrator 27.5.0, SVG Export Plug-In . SVG Version: 6.00 Build 0)  -->
<svg version="1.1" xmlns="http://www.w3.org/2000/svg" xmlns:xlink="http://www.w3.org/1999/xlink" x="0px" y="0px"
	 viewBox="0 0 2200 2200" style="enable-background:new 0 0 2200 2200;" xml:space="preserve">
<g id="background">
	<rect style="fill:#FFFFFF;" width="2200" height="2200"/>
</g>
<g id="Objects">
	<g>
		<g>
			<path style="fill:#D84A4A;" d="M1959.44,1543.308c-33.86,50.97-98.44,79.62-158.95,70.51s-113.8-55.5-131.15-114.18
				c-10.6-35.84-8.71-74.95-23-109.49c-26.14-63.19-110.45-94.29-171.37-63.21c-60.91,31.08-85.22,117.59-49.4,175.85
				c31.55,51.3,95.61,73.65,132.87,120.97c49.63,63.02,34.31,166.67-31.43,212.65c21.44-41.05-20.04-91.11-65.44-100.19
				c-45.41-9.08-91.46,7.28-137.17,14.65c-45.71,7.38-100.32,1.87-126.11-36.58c-21.3-31.75-14.88-74.32-2.85-110.61
				c12.03-36.29,29.08-72.56,26.56-110.71c-2.53-38.15-34.78-77.95-72.41-71.17c-39.9,7.19-54.39,56.36-58.02,96.75
				s-9.51,88.85-46.14,106.25c24.32-102.56-43.96-218.17-145.51-246.4c-47.39-13.16-97.57-9.02-146.71-7.12
				c-49.14,1.91-100.41,1.01-144.43-20.92c-22.52-11.22-42.5-29.45-55.31-51.04c171.07,55.71,366.54,15.59,502.47-120.34
				c96.43-96.43,144.63-222.8,144.63-349.17c0-84.84-21.72-169.67-65.19-245.45c129.11,31.73,116.83,216.42,211.5,279.16
				c27.35,18.12,62.26,19.42,95.02,21.15c32.76,1.72,67,3.76,95.22,20.48c28.22,16.72,47.69,53.19,34.16,83.08
				c-22.79-11.41-46.2-23.01-71.54-25.84c-25.33-2.84-53.42,4.85-68.32,25.54c-19.88,27.63-8.45,69.19,17.5,91.22
				c25.95,22.03,61.89,28.18,95.93,28.14c34.03-0.04,68.07-5.39,102-2.69c99,7.89,186.35,92.65,197.22,191.36
				c3.95,35.86-1.14,72.02-1.87,108.08c-0.73,36.06,3.51,73.91,23.69,103.81C1886.06,1537.748,1925.95,1556.708,1959.44,1543.308z"
				/>
		</g>
		<g>
			<path style="fill:#FFFFFF;" d="M1172.979,829.808c0,119.31-45.51,238.62-136.55,329.66
				c-162.91,162.91-416.39,180.05-598.36,51.42c-7.23-5.11-14.35-10.45-21.34-16.03c-13.71-10.91-26.94-22.71-39.62-35.39
				c-50.38-50.39-86.83-109.44-109.32-172.36c-1-2.78-1.96-5.57-2.91-8.37c-54.63-162.5-17.22-349.14,112.23-478.6
				c129.44-129.44,316.06-166.85,478.55-112.24c2.74,0.92,5.46,1.86,8.19,2.84c63,22.49,122.14,58.96,172.58,109.4
				c12.75,12.75,24.61,26.06,35.58,39.84c5.8,7.3,11.36,14.73,16.66,22.29C1144.88,642.308,1172.979,736.058,1172.979,829.808z"/>
			<g>
				<path d="M1161.283,687.979c-14.606-46.947-36.333-91.141-64.57-131.35c-5.34-7.616-11.063-15.274-17.019-22.769
					c-11.269-14.154-23.487-27.837-36.318-40.668c-50.356-50.355-109.646-87.938-176.208-111.699
					c-2.674-0.959-5.415-1.91-8.38-2.906c-82.764-27.816-171.616-32.37-256.953-13.171c-87.699,19.73-167.81,63.915-231.672,127.776
					c-63.867,63.872-108.053,143.993-127.782,231.7c-19.198,85.347-14.638,174.208,13.196,257.002
					c0.795,2.342,1.851,5.428,2.962,8.52c23.756,66.462,61.312,125.677,111.624,176c12.807,12.807,26.416,24.963,40.438,36.121
					c7.022,5.606,14.357,11.115,21.798,16.374c80.155,56.66,176.388,86.925,274.525,86.925c12.728,0,25.499-0.51,38.26-1.537
					c55.148-4.438,108.536-18.245,158.678-41.035c51.901-23.591,98.841-56.175,139.514-96.848
					c45.44-45.44,80.624-98.426,104.572-157.483c23.128-57.035,34.854-117.3,34.854-179.123
					C1182.803,781.592,1175.563,733.873,1161.283,687.979z M384.056,1152.522c-14.545-14.548-27.97-29.876-40.263-45.93
					c6.9-2.141,15.382-3.067,24.864-0.55c16.797,4.464,25.668,18.36,29.364,25.936c0.659,1.361,2.699,0.945,2.79-0.567
					c0.644-10.874-0.873-35.827-27.875-43c-16.548-4.395-28.096,1.765-35.675,9.435c-24.893-34.182-44.762-71.54-59.359-111.682
					c5.469,0.104,11.469,1.24,17.65,4.186c15.128,7.219,21.069,21.968,23.227,29.812c0.384,1.403,2.389,1.371,2.746-0.042
					c2.542-10.201,5.543-34.123-18.782-45.723c-11.578-5.525-21.43-4.472-29.259-0.953c-26.037-78.744-30.177-163.143-11.935-244.24
					c18.912-84.074,61.274-160.882,122.507-222.12c61.229-61.228,138.026-103.588,222.092-122.501
					c33.213-7.472,66.974-11.192,100.682-11.192c48.548,0,96.973,7.737,143.43,23.081c-3.65,7.886-4.824,17.864,0.786,29.622
					c11.6,24.325,35.522,21.324,45.723,18.782c1.412-0.357,1.445-2.362,0.042-2.746c-7.844-2.158-22.593-8.099-29.812-23.227
					c-3.026-6.346-4.144-12.503-4.193-18.089c40.271,14.611,77.74,34.522,112.01,59.478c-7.818,7.573-14.212,19.216-9.756,35.996
					c7.173,27.002,32.126,28.519,43,27.875c1.512-0.09,1.927-2.131,0.567-2.79c-7.575-3.696-21.472-12.567-25.936-29.364
					c-2.573-9.692-1.545-18.337,0.697-25.318c16.116,12.329,31.499,25.798,46.096,40.394c12.31,12.309,24.032,25.435,34.835,39.004
					c1.162,1.463,2.309,2.936,3.452,4.411c-1.2,4.842-1.648,10.323-1.056,16.524c2.748,28.798,24.498,38.141,39.18,41.188
					c17.99,32.293,31.884,66.481,41.472,101.959c4.059,34.079,4.071,74.225-4.769,118.916
					c-11.887,3.358-23.866,11.414-30.431,29.075c-7.672,20.641-1.18,36.167,7.714,46.789c-7.18,17.853-15.865,36.197-26.296,54.962
					c-13.272,0.017-28.333,4.853-39.351,22.397c-10.575,16.841-8.996,31.951-3.769,43.714
					c-12.765,17.014-27.038,34.281-42.967,51.752c-12.111-2.069-26.297,0.046-39.792,13.017
					c-14.141,13.593-16.397,28.42-14.32,40.99c-17.916,16.263-35.615,30.782-53.048,43.726c-11.931-5.666-27.511-7.743-44.944,3.204
					c-17.867,11.22-22.563,26.636-22.403,40.083c-17.424,9.495-34.481,17.495-51.111,24.185
					c-10.622-8.901-26.153-15.403-46.804-7.727c-17.672,6.569-25.727,18.558-29.081,30.453
					c-43.835,8.676-83.298,8.843-116.948,5.036c-35.763-9.52-70.331-23.347-102.846-41.283
					c-2.762-14.661-11.782-37.648-41.439-40.482c-6.767-0.646-12.674-0.053-17.832,1.404c-1.369-1.066-2.735-2.134-4.082-3.209
					C409.39,1176.464,396.339,1164.806,384.056,1152.522z"/>
				<path d="M834.828,1009.181c-0.527-8.382,0.542-24.447,13.826-37.22c12.532-12.043,29.014-12.415,37.408-11.644
					c1.505,0.143,2.208-1.817,0.963-2.679c-8.962-6.193-31.08-17.844-51.223,1.516c-19.985,19.21-9.53,41.584-3.683,50.906
					C832.928,1011.351,834.93,1010.704,834.828,1009.181z"/>
				<path d="M736.626,1035.615c-24.202,13.516-19.76,37.809-16.468,48.31c0.455,1.453,2.555,1.335,2.844-0.165
					c1.615-8.242,6.722-23.511,22.81-32.499c15.176-8.472,31.214-4.654,39.138-1.78c1.419,0.52,2.597-1.198,1.611-2.347
					C779.461,1038.872,761.019,1021.994,736.626,1035.615z"/>
				<path d="M595.921,1127.554c3.652-7.563,12.462-21.039,30.304-25.654c16.828-4.348,31.374,3.411,38.31,8.2
					c1.241,0.863,2.816-0.5,2.153-1.862c-4.772-9.792-18.333-30.794-45.382-23.802c-26.838,6.939-28.7,31.565-28.177,42.557
					C593.201,1128.514,595.263,1128.931,595.921,1127.554z"/>
				<path d="M461.89,1137.7c5.45-6.39,17.389-17.192,35.818-17.134c17.38,0.06,29.484,11.253,34.98,17.644
					c0.982,1.149,2.851,0.23,2.555-1.255c-2.134-10.682-9.927-34.436-37.866-34.529c-27.72-0.092-35.765,23.258-38.046,34.023
					C459.016,1137.939,460.904,1138.866,461.89,1137.7z"/>
				<path d="M912.263,859.978c-13.621,24.393,3.257,42.835,11.519,49.934c1.149,0.986,2.867-0.191,2.347-1.611
					c-2.874-7.924-6.692-23.962,1.78-39.138c8.988-16.088,24.257-21.195,32.499-22.81c1.5-0.288,1.618-2.388,0.165-2.843
					C950.073,840.218,925.779,835.776,912.263,859.978z"/>
				<path d="M984.885,790.041c1.362,0.663,2.725-0.912,1.862-2.153c-4.789-6.936-12.548-21.483-8.2-38.31
					c4.615-17.841,18.091-26.652,25.654-30.304c1.378-0.659,0.96-2.72-0.561-2.792c-10.992-0.523-35.618,1.34-42.557,28.177
					C954.091,771.708,975.093,785.268,984.885,790.041z"/>
				<path d="M1013.603,658.595c1.485,0.296,2.404-1.573,1.255-2.555c-6.391-5.496-17.584-17.6-17.644-34.98
					c-0.058-18.429,10.744-30.367,17.134-35.818c1.166-0.987,0.239-2.875-1.251-2.559c-10.765,2.281-34.115,10.326-34.023,38.046
					C979.167,648.668,1002.921,656.461,1013.603,658.595z"/>
				<path d="M851.127,1061.989c-26.872,20.764-17.085,49.392-11.192,61.517c0.815,1.678,3.338,1.154,3.415-0.715
					c0.463-10.279,3.88-29.704,21.743-43.511c16.85-13.017,36.974-11.299,47.095-9.254c1.814,0.372,2.929-1.922,1.526-3.136
					C903.615,1058.167,878.211,1041.062,851.127,1061.989z"/>
				<path d="M705.52,1194.687c3.001-9.842,11.137-27.809,31.87-36.746c19.555-8.423,38.622-1.761,47.918,2.735
					c1.665,0.811,3.315-1.135,2.257-2.658c-7.616-10.958-27.975-33.838-59.408-20.294c-31.187,13.439-28.819,43.6-26.123,56.809
					C702.407,1196.36,704.981,1196.478,705.52,1194.687z"/>
				<path d="M554.152,1230.092c5.352-8.787,17.696-24.171,39.999-27.678c21.035-3.302,37.849,7.888,45.737,14.552
					c1.411,1.199,3.493-0.275,2.847-2.014c-4.655-12.507-18.693-39.726-52.505-34.415c-33.548,5.27-38.746,35.075-39.415,48.54
					C550.721,1230.939,553.185,1231.694,554.152,1230.092z"/>
				<path d="M1000.419,963.022c-12.125-5.893-40.753-15.679-61.517,11.192c-20.927,27.084-3.822,52.488,4.901,62.587
					c1.213,1.403,3.508,0.288,3.136-1.526c-2.045-10.121-3.763-30.245,9.254-47.095c13.807-17.863,33.232-21.28,43.511-21.743
					C1001.573,966.36,1002.097,963.837,1000.419,963.022z"/>
				<path d="M824.257,900.458c-1.58-7.975-2.873-23.825,7.426-37.054c10.924-14.023,26.229-16.657,34.323-16.991
					c1.472-0.055,1.892-2.04,0.573-2.687c-9.529-4.676-32.041-12.466-48.47,8.63c-16.557,21.263-3.165,41.316,3.674,49.294
					C822.735,902.758,824.545,901.887,824.257,900.458z"/>
				<path d="M888.112,799.903c1.218,0.806,2.721-0.526,2.054-1.823c-3.699-7.24-9.272-22.135-2.978-37.673
					c6.678-16.474,20.682-23.188,28.377-25.72c1.401-0.455,1.263-2.479-0.182-2.741c-10.444-1.895-34.228-3.24-44.269,21.541
					C860.993,778.464,879.354,794.096,888.112,799.903z"/>
				<path d="M895.094,643.9c-2.912,26.791,19.02,36.814,29.03,40.007c1.392,0.443,2.474-1.249,1.478-2.314
					c-5.536-5.955-14.965-18.76-13.155-35.427c1.924-17.672,13.561-27.955,20.273-32.493c1.223-0.82,0.538-2.73-0.924-2.587
					C921.232,612.116,897.985,617.318,895.094,643.9z"/>
				<path d="M927.084,562.487c1.46,0.046,2.039-1.878,0.789-2.63c-6.952-4.216-19.52-13.959-22.332-30.487
					c-2.976-17.525,5.41-30.597,10.626-36.795c0.953-1.123-0.228-2.773-1.596-2.236c-9.881,3.877-30.823,15.231-26.343,41.592
					C892.746,558.499,916.583,562.149,927.084,562.487z"/>
				<path d="M723.061,989.359c0.334-8.094,2.967-23.4,16.991-34.323c13.229-10.299,29.079-9.006,37.054-7.426
					c1.429,0.288,2.301-1.522,1.192-2.473c-7.978-6.838-28.031-20.231-49.294-3.674c-21.096,16.429-13.306,38.94-8.63,48.47
					C721.021,991.251,723.006,990.831,723.061,989.359z"/>
				<path d="M611.335,1038.917c2.532-7.695,9.246-21.699,25.72-28.377c15.539-6.294,30.433-0.721,37.673,2.978
					c1.296,0.667,2.629-0.836,1.823-2.054c-5.806-8.757-21.439-27.118-46.416-16.998c-24.782,10.042-23.436,33.825-21.542,44.269
					C608.856,1040.18,610.88,1040.318,611.335,1038.917z"/>
				<path d="M490.321,1056.072c4.538-6.711,14.822-18.349,32.493-20.273c16.667-1.81,29.472,7.619,35.427,13.155
					c1.065,0.996,2.757-0.086,2.314-1.478c-3.194-10.01-13.216-31.943-40.007-29.031c-26.582,2.891-31.784,26.137-32.814,36.702
					C487.591,1056.61,489.501,1057.296,490.321,1056.072z"/>
				<path d="M436.505,1051.226c0.752,1.249,2.676,0.67,2.63-0.79c-0.338-10.502-3.988-34.338-30.556-38.854
					c-26.361-4.48-37.715,16.461-41.592,26.343c-0.537,1.367,1.113,2.549,2.236,1.596c6.198-5.216,19.27-13.602,36.795-10.626
					C422.546,1031.705,432.289,1044.274,436.505,1051.226z"/>
				<path d="M1034.929,910.652c1.524,1.058,3.47-0.592,2.658-2.257c-4.495-9.296-11.158-28.363-2.734-47.918
					c8.937-20.732,26.905-28.868,36.746-31.87c1.792-0.539,1.673-3.113-0.155-3.486c-13.209-2.696-43.371-5.065-56.809,26.123
					C1001.092,882.678,1023.971,903.037,1034.929,910.652z"/>
				<path d="M1091.864,765.821c1.739,0.646,3.214-1.436,2.014-2.847c-6.663-7.888-17.853-24.702-14.552-45.737
					c3.507-22.303,18.891-34.647,27.678-39.999c1.601-0.967,0.847-3.431-1.016-3.338c-13.464,0.669-43.269,5.867-48.54,39.415
					C1052.138,747.129,1079.358,761.166,1091.864,765.821z"/>
			</g>
		</g>
	</g>
</g>
</svg>
